<svg width="9" height="14" viewBox="0 0 9 14" fill="none" xmlns="http://www.w3.org/2000/svg">
<path d="M0.511719 1.4248C0.511719 1.05566 0.605469 0.789063 0.792969 0.625C0.986328 0.460937 1.27637 0.378906 1.66309 0.378906H7.65723C7.78613 0.378906 7.89746 0.402344 7.99121 0.449219C8.09082 0.496094 8.17285 0.560547 8.2373 0.642578C8.30176 0.71875 8.34863 0.806641 8.37793 0.90625C8.41309 1 8.43066 1.09961 8.43066 1.20508C8.43066 1.31055 8.41309 1.41309 8.37793 1.5127C8.34863 1.60645 8.30176 1.69434 8.2373 1.77637C8.17285 1.85254 8.09082 1.91406 7.99121 1.96094C7.89746 2.00781 7.78613 2.03125 7.65723 2.03125H2.40137L2.34863 6.03027C2.72949 5.64355 3.15723 5.35352 3.63184 5.16016C4.10645 4.96094 4.62793 4.86133 5.19629 4.86133C5.76465 4.86133 6.28027 4.9668 6.74316 5.17773C7.21191 5.38281 7.61328 5.67285 7.94727 6.04785C8.28125 6.41699 8.53906 6.85645 8.7207 7.36621C8.90234 7.87598 8.99316 8.43262 8.99316 9.03613C8.99316 9.6748 8.87598 10.2549 8.6416 10.7764C8.40723 11.292 8.08496 11.7344 7.6748 12.1035C7.26465 12.4668 6.77539 12.748 6.20703 12.9473C5.64453 13.1465 5.03516 13.2461 4.37891 13.2461C3.96289 13.2461 3.55859 13.208 3.16602 13.1318C2.7793 13.0615 2.41895 12.9502 2.08496 12.7979C1.75098 12.6396 1.45215 12.4434 1.18848 12.209C0.924805 11.9746 0.710938 11.6992 0.546875 11.3828C0.464844 11.2832 0.40625 11.1865 0.371094 11.0928C0.341797 10.9932 0.327148 10.8965 0.327148 10.8027C0.327148 10.5977 0.394531 10.4219 0.529297 10.2754C0.669922 10.1289 0.836914 10.0557 1.03027 10.0557C1.12402 10.0557 1.21777 10.0762 1.31152 10.1172C1.41113 10.1582 1.50781 10.2227 1.60156 10.3105C1.85352 10.7441 2.21094 11.0693 2.67383 11.2861C3.13672 11.5029 3.64355 11.6113 4.19434 11.6113C4.60449 11.6113 4.96191 11.5469 5.2666 11.418C5.57715 11.2832 5.83496 11.0986 6.04004 10.8643C6.24512 10.624 6.40039 10.3428 6.50586 10.0205C6.61133 9.69238 6.66406 9.33203 6.66406 8.93945C6.66406 8.56445 6.61426 8.21875 6.51465 7.90234C6.4209 7.58594 6.28027 7.31348 6.09277 7.08496C5.91113 6.85645 5.68848 6.68066 5.4248 6.55762C5.16113 6.42871 4.8623 6.36426 4.52832 6.36426C4.25293 6.36426 4.00391 6.39941 3.78125 6.46973C3.56445 6.53418 3.36816 6.61914 3.19238 6.72461C3.02246 6.83008 2.87891 6.94727 2.76172 7.07617C2.64453 7.19922 2.55078 7.31934 2.48047 7.43652C2.38672 7.6416 2.24023 7.80273 2.04102 7.91992C1.84766 8.03125 1.64551 8.08691 1.43457 8.08691C1.31738 8.08691 1.20312 8.06934 1.0918 8.03418C0.980469 7.99316 0.880859 7.93457 0.792969 7.8584C0.710938 7.77637 0.643555 7.67676 0.59082 7.55957C0.538086 7.43652 0.511719 7.29004 0.511719 7.12012V1.4248Z" fill="#FB6900"/>
</svg>
